<svg id="svg" version="1.1" xmlns="http://www.w3.org/2000/svg" xmlns:xlink="http://www.w3.org/1999/xlink" width="400" height="400" viewBox="0, 0, 400,400"><g id="svgg"><path id="path0" d="M186.344 0.312 C 136.118 3.846,93.137 23.875,55.953 61.073 C 35.635 81.398,17.969 111.115,8.966 140.115 C -25.244 250.303,39.916 366.437,151.494 394.142 C 160.554 396.391,162.681 396.806,171.977 398.132 C 194.599 401.359,221.044 400.347,243.243 395.405 C 291.278 384.711,333.459 357.050,362.051 317.496 C 425.238 230.082,408.025 108.810,322.971 42.170 C 284.384 11.937,235.213 -3.128,186.344 0.312 M241.249 72.475 C 241.248 72.592,239.828 74.609,238.093 76.956 C 236.358 79.303,233.522 83.144,231.790 85.491 C 230.058 87.838,228.076 90.430,227.385 91.252 L 226.130 92.745 198.463 92.745 L 170.796 92.745 170.215 92.105 C 169.895 91.753,168.465 89.737,167.036 87.624 C 165.607 85.512,163.808 83.016,163.038 82.077 C 160.866 79.428,156.472 72.933,156.472 72.371 C 156.472 72.311,175.548 72.262,198.862 72.262 C 222.176 72.262,241.251 72.358,241.249 72.475 M254.844 103.793 C 254.924 104.032,243.448 118.391,238.483 124.264 L 237.692 125.200 199.226 125.377 L 160.759 125.555 159.754 124.457 C 159.201 123.854,158.748 123.203,158.748 123.011 C 158.748 122.820,158.135 121.981,157.385 121.147 C 156.635 120.313,155.294 118.670,154.405 117.496 C 153.515 116.323,150.800 112.803,148.371 109.674 C 145.942 106.545,143.954 103.856,143.954 103.699 C 143.955 103.281,254.705 103.375,254.844 103.793 M268.255 135.818 C 268.761 136.427,268.014 137.544,262.185 144.895 C 253.868 155.384,253.150 156.219,251.842 156.940 L 250.625 157.610 199.048 157.610 L 147.471 157.610 146.331 156.635 C 145.704 156.098,144.506 154.658,143.668 153.434 C 142.830 152.210,139.760 148.009,136.846 144.097 C 131.553 136.992,131.010 136.165,131.310 135.678 C 131.602 135.206,267.862 135.345,268.255 135.818 M282.329 168.132 C 282.506 168.310,282.450 168.587,282.173 168.912 C 281.935 169.190,278.261 173.605,274.008 178.724 C 269.754 183.844,265.849 188.356,265.329 188.753 L 264.384 189.474 198.569 189.474 L 132.754 189.474 132.095 188.855 C 131.733 188.515,131.434 188.099,131.431 187.930 C 131.427 187.762,130.664 186.664,129.734 185.491 C 125.068 179.601,117.212 168.574,117.212 167.915 C 117.212 167.592,282.006 167.810,282.329 168.132 M296.399 202.012 C 295.720 202.805,294.780 203.999,294.310 204.665 C 293.841 205.331,292.551 207.018,291.444 208.414 C 290.336 209.811,287.953 212.817,286.146 215.096 C 284.340 217.374,282.310 219.710,281.636 220.288 L 280.410 221.337 199.729 221.337 L 119.049 221.337 118.014 220.485 C 117.446 220.016,114.915 216.883,112.390 213.524 C 109.865 210.164,107.680 207.342,107.533 207.251 C 107.278 207.093,104.904 203.973,103.606 202.090 C 103.266 201.596,102.987 201.052,102.987 200.881 C 102.987 200.655,129.955 200.569,200.311 200.569 L 297.635 200.569 296.399 202.012 M187.564 232.103 C 188.349 232.888,188.050 233.361,182.062 240.825 C 174.168 250.664,172.806 252.247,171.797 252.750 C 170.988 253.154,167.249 253.201,135.850 253.201 L 100.806 253.201 99.772 252.276 C 98.373 251.026,85.349 232.722,85.349 232.006 C 85.348 231.157,186.714 231.254,187.564 232.103 M316.074 231.716 C 316.074 232.237,302.605 249.990,301.123 251.422 L 299.284 253.201 262.314 253.201 L 225.343 253.201 224.190 251.565 C 223.555 250.665,221.636 247.881,219.925 245.377 C 218.214 242.873,216.555 240.505,216.237 240.114 C 215.920 239.723,215.657 239.289,215.654 239.151 C 215.650 239.013,214.773 237.733,213.704 236.306 C 211.398 233.229,210.526 231.979,210.526 231.748 C 210.526 231.655,234.275 231.579,263.300 231.579 C 292.326 231.579,316.074 231.641,316.074 231.716 M131.341 264.580 C 162.560 264.580,165.576 264.621,165.576 265.036 C 165.576 265.492,158.706 275.273,156.305 278.236 C 155.608 279.097,154.151 280.969,153.068 282.396 C 151.985 283.823,150.889 285.071,150.633 285.170 C 150.377 285.268,135.402 285.349,117.357 285.349 L 84.547 285.349 76.972 275.096 C 72.669 269.274,69.482 264.706,69.594 264.524 C 69.738 264.290,73.466 264.255,83.449 264.392 C 90.960 264.496,112.512 264.580,131.341 264.580 M224.948 264.944 C 224.625 265.562,222.508 268.241,220.057 271.135 C 219.431 271.874,218.343 273.212,217.639 274.107 C 216.935 275.003,215.875 276.330,215.285 277.057 C 214.694 277.784,213.542 279.201,212.724 280.206 C 211.907 281.212,210.522 282.780,209.647 283.691 L 208.057 285.349 198.033 285.349 L 188.009 285.349 186.623 283.997 C 183.917 281.359,172.346 265.058,172.890 264.651 C 173.263 264.373,179.002 264.296,199.326 264.296 L 225.286 264.296 224.948 264.944 M329.919 264.742 C 330.128 265.289,329.691 266.137,328.342 267.796 C 327.775 268.493,326.415 270.244,325.320 271.686 C 321.973 276.095,319.764 278.885,318.531 280.260 C 317.884 280.982,316.957 282.070,316.471 282.678 C 315.985 283.286,315.044 284.072,314.381 284.424 L 313.175 285.064 279.778 285.064 L 246.380 285.064 242.744 279.587 C 240.744 276.575,238.940 273.780,238.735 273.376 C 238.530 272.972,237.736 271.820,236.972 270.816 C 236.208 269.812,235.578 268.890,235.572 268.768 C 235.567 268.645,234.985 267.685,234.280 266.634 L 232.997 264.723 279.159 264.579 C 304.547 264.500,326.316 264.404,327.534 264.366 C 329.325 264.309,329.780 264.381,329.919 264.742 M241.252 295.918 C 241.252 296.260,238.004 300.606,233.204 306.686 C 231.660 308.642,229.542 311.328,228.498 312.656 C 227.454 313.983,226.054 315.616,225.386 316.283 L 224.172 317.496 197.506 317.495 L 170.839 317.494 170.053 316.855 C 169.154 316.125,168.718 315.508,161.163 304.267 L 155.618 296.017 198.079 295.873 C 221.433 295.794,240.701 295.698,240.896 295.660 C 241.092 295.622,241.252 295.738,241.252 295.918 M148.107 327.453 C 148.294 327.639,167.181 327.762,203.052 327.809 L 257.712 327.881 255.954 330.172 C 254.987 331.432,252.404 334.741,250.213 337.525 C 248.023 340.310,245.974 342.933,245.661 343.354 C 244.366 345.100,241.874 348.109,241.395 348.506 C 240.666 349.110,156.805 349.065,155.674 348.460 C 154.736 347.958,149.351 340.746,143.708 332.432 C 142.539 330.711,141.349 328.998,141.062 328.625 C 140.022 327.272,140.242 327.169,144.182 327.169 C 146.224 327.169,147.948 327.294,148.107 327.453 " stroke="none" fill="#fc7414" fill-rule="evenodd"></path><path id="path1" d="" stroke="none" fill="#1007414" fill-rule="evenodd"></path><path id="path2" d="" stroke="none" fill="#1007414" fill-rule="evenodd"></path><path id="path3" d="" stroke="none" fill="#1007414" fill-rule="evenodd"></path><path id="path4" d="" stroke="none" fill="#1007414" fill-rule="evenodd"></path></g></svg>