<svg width="256" height="256" viewBox="0 0 256 256" fill="none" xmlns="http://www.w3.org/2000/svg">
	<rect x="1" y="1" width="254" height="254" rx="127" fill="url(#paint0_radial_1_31)"/>
	<path d="M60 64C60 57.3726 65.3726 52 72 52H160C160 58.6274 154.627 64 148 64H60Z" fill="black"/>
	<path d="M60 72H185C185 78.6274 179.627 84 173 84H60V72Z" fill="black"/>
	<path d="M60 92H196C196 98.6274 190.627 104 184 104H60V92Z" fill="black"/>
	<path d="M60 112H185C185 118.627 179.627 124 173 124H60V112Z" fill="black"/>
	<path d="M60 132H160C160 138.627 154.627 144 148 144H60V132Z" fill="black"/>
	<path d="M60 152H160C160 158.627 154.627 164 148 164H60V152Z" fill="black"/>
	<path d="M60 172H170C170 178.627 164.627 184 158 184H60V172Z" fill="black"/>
	<path d="M60 192H196C196 198.627 190.627 204 184 204H72C65.3726 204 60 198.627 60 192Z" fill="black"/>
	<rect x="1" y="1" width="254" height="254" rx="127" stroke="#38BDF8" stroke-width="2"/>
	<defs>
		<radialGradient id="paint0_radial_1_31" cx="0" cy="0" r="1" gradientUnits="userSpaceOnUse" gradientTransform="translate(128 128) rotate(90) scale(128)">
			<stop offset="0.932192" stop-color="#FB923C"/>
			<stop offset="0.932292" stop-opacity="0"/>
		</radialGradient>
	</defs>
</svg>
